<svg version="1.0" xmlns="http://www.w3.org/2000/svg" width="933.333" height="933.333" viewBox="0 0 700 700"><path d="M54.9.4c-.2.2-1.7.6-3.4.9C29.3 5.1 11.1 21.5 2.8 44.9.3 52.1-.4 68 1.6 77c6.9 32.5 40 54.4 73.1 48.5 49.9-8.9 69.2-70.7 33.3-106.6-9-9-20-15.1-32-17.6C73.5.8 55.3 0 54.9.4zm198.7 61.9c.1 34.2.2 62.7.3 63.4.1 1 48.1 1.2 220.5 1.2 204.4-.1 220.4-.2 220.8-1.7.2-1 .3-15.2.2-31.7-.2-32.8-1-39.2-6-50.8-4.1-9.1-9.3-16.5-16.6-23.2-8.1-7.5-15.4-11.9-26.5-15.9L637.5.5l-192-.2-192-.1.1 62.1zM0 347.7V411h442v-4.8c.3-44.1 0-120.5-.5-121-.4-.4-99.9-.7-221.1-.8H0v63.3zm624.2-62.6c-24.5 2.9-43.8 19.1-52.9 44.4-2.6 7.2-2.5 28.8.1 36.5 9.7 28.6 35 46.4 63.4 44.7 12.6-.8 19.8-2.8 29.4-8.4 15.3-9 27.4-26.5 30.2-43.8 1.2-6.9.7-19.8-.9-26-8-31.2-37.2-51.2-69.3-47.4zM254 569c-.4.3-.7 28.8-.6 63.5l.1 62.9 187.5.1c191.1 0 193.1 0 205.5-3.6 23.9-6.9 44.8-31.8 48.1-57.5.9-7.4 1.1-63.2.2-64.7-.5-.8-60.7-1.1-220.3-1.2-120.8 0-220 .2-220.5.5zm-200.1.4c-.2.2-2 .7-3.9 1-14.1 2.2-29.7 12.6-38.9 25.9-17.2 25.1-13.9 60.5 7.7 82.2 8.4 8.5 17.5 13.5 30.7 17 5 1.4 22.4 1.4 27.4.2 23-5.9 40.3-22.2 47.1-44.2 3.5-11.5 3.2-27.7-.8-40.2-3.9-12.3-17.1-27.9-29.2-34.5-9.3-5.2-19.7-7.8-30.6-7.8-5 0-9.3.2-9.5.4z"/></svg>