<svg width="119" height="24" xmlns="http://www.w3.org/2000/svg"><g fill="#EADFCA" fill-rule="nonzero"><path d="M2.8 22.89c-.46-.82-.91-1.63-1.28-2.31.53-1.77 1.83-1.66 3-1.66h107.09c1 0 2.08 0 3.11.09a3.94 3.94 0 013.56 2.4l-2.25 1.49L2.8 22.89zM112.5 11.66c-1.07 1.69-2.7 1.63-4.29 1.63H28.18c-1.74 0-3.48-.11-5.17-.17L21.8 11c.14-.33.19-.8.39-.88a7.38 7.38 0 012.42-.68c18.933-.08 37.86-.13 56.78-.15h26.11c1.53 0 3.07 0 4.24 1.17.291.375.546.776.76 1.2zM64.78 5.1l-.69-2.06c.16-.28.24-.6.41-.66a7.42 7.42 0 012.23-.58c10.3-.087 20.6-.14 30.9-.16a5.33 5.33 0 014.74 2.37 6.38 6.38 0 01-4.22 1.59c-10-.05-20-.07-29.94-.14a34.25 34.25 0 01-3.43-.36z"/></g></svg>