<svg width="315" height="56" xmlns="http://www.w3.org/2000/svg"><g fill="#EADFCA" fill-rule="nonzero"><path d="M1.19 34.05c.4-2 1.88-2.27 3.62-2.27h34.54c28.713 0 57.417.017 86.11.05H309.66c2.48.06 3.34.92 3.72 3.45-.71 1.45-2.06 1.56-3.45 1.57H16.16c-3.52 0-7-.07-10.55 0-2.12.15-3.8-.25-4.42-2.8zM293.69 23.63c-.77 1.51-2.17 1.65-3.65 1.65H58.79c-2.14 0-3.69-.77-4.39-2.88.5-1.79 1.85-2.12 3.37-2.14 4.233 0 8.467-.023 12.7-.07h36.61c5.51 0 11-.08 16.54-.08h165.87c3.23.14 3.23.23 4.2 3.52zM99.06 15.72l-1.22-2.47c.78-2 1.32-2.39 3.6-2.4h66.39l41.2.06c5 0 9.91 0 14.86-.08a6.51 6.51 0 014.95 1.7c.13.45.3 1.06.47 1.64a4.27 4.27 0 01-.5.89c-1.12 1.17-2.6 1.06-4 1.06H102.36a27.56 27.56 0 01-3.3-.4zM223.13 43.93c-.94 1.46-2.29 1.57-3.67 1.57h-70.49c-1.57 0-3.14-.22-4.57-.33l-1.28-2.64c.4-1.67 1.64-2 3.1-2h72.15a10.15 10.15 0 011.91.1c1.82.29 2.54 1.17 2.85 3.3zM134.93 5.55c-1.7-3.59-1-4.75 2.66-4.77 8.31-.05 16.62 0 24.93 0h22c2.25 0 4 .81 4.89 3-.7 1.94-2.23 2.24-3.89 2.25h-46.75a32.58 32.58 0 01-3.84-.48zM218.08 53.91a3.56 3.56 0 01-3.45 1.65c-5.83 0-11.67-.06-17.5 0-2.15 0-3.73-.61-4.5-2.9a2.37 2.37 0 012.61-2.1c6.4 0 12.79-.07 19.19 0 2.18.04 3.21 1.12 3.65 3.35z"/></g></svg>