<svg width="106" height="75" xmlns="http://www.w3.org/2000/svg"><g fill="none" fill-rule="evenodd"><path d="M33.18 30.72c5.47-2 9.11-4.42 8.69-6.1-.55-2.14-7.52-2.2-15.57-.15-8.05 2.05-14.13 5.46-13.58 7.6.41 1.6 4.43 2 9.81 1.29" stroke="#FEB44D" stroke-width="3"/><path d="M1 71.62a2.55 2.55 0 012.75-1.66c13.92.06 27.83 0 41.75 0h1.43l.11-.27-37-21.36.17-.17-1.34-1.58.76-1.18c1.77-.49 2.92.78 4.19 1.48 4.6 2.53 9.13 5.2 13.67 7.83 2.87 1.67 5.71 3.39 8.58 5.05 4.18 2.41 8.38 4.79 12.86 7.35L22.4 21.3l1 .57-.88-2.13c1.47-1 2.11-.87 3 .73 1.78 3 3.54 6.09 5.31 9.13l9.65 16.66c2.98 5.153 5.957 10.307 8.93 15.46a24.05 24.05 0 002.36 3.65V2.09l.57.2.32-1.81c1.29-.09 2.16.08 2.19 1.46 0 2.55.14 5.09.15 7.63V65.08a1.8 1.8 0 00.2 1c4.22-15.83 8.45-31.66 12.7-47.6l.43.2.87-1.56c1.82.49 2.18 1.07 1.71 2.74-1.19 4.3-2.46 8.59-3.61 12.91-1.84 6.87-3.59 13.76-5.41 20.64-.94 3.55-2 7.08-2.93 10.62 0 .18-.06.37-.11.67l28.54-28.43v.64l2-1.49c1.6 1.77 1.22 1.9-.29 3.47-5.44 5.62-11 11.07-16.58 16.59-3.78 3.767-7.557 7.54-11.33 11.32-.3.3-.56.64-1.1 1.26 1.42-.36 2.51-.62 3.6-.91l23.49-6.27c2.09-.55 4.17-1.14 6.27-1.67 2.31-.58 4.62-1.17 7-1.61a6.63 6.63 0 012.22.44l-.09 1.74.1.32c-1.31.45-2.6 1-3.93 1.34-4.69 1.29-9.39 2.53-14.1 3.78-3.66 1-7.33 1.91-11 2.87-2.43.63-4.86 1.28-7.26 2.15h37.12c-.1.25-.16.42-.23.58l2.33.55-.54 1.77a16.25 16.25 0 01-2.25.34H56.18c-6.37 0-12.73-.05-19.1-.08l-21.16-.1H2.47L.96 71.9l.04-.28z" fill="#C47F6A" fill-rule="nonzero"/><path d="M21.4 26c-5.47 2-9.11 4.42-8.68 6.1.55 2.14 7.51 2.2 15.56.15 8.05-2.05 14.13-5.46 13.59-7.6-.41-1.6-4.43-2-9.82-1.29" stroke="#FEB44D" stroke-width="3"/></g></svg>