<svg width="101" height="37" xmlns="http://www.w3.org/2000/svg"><g fill="#EADFCA" fill-rule="nonzero"><path d="M100.6 22a2.93 2.93 0 01-3 2.1c-1.44.08-2.88 0-4.32 0l-56.32.2c-10.23 0-20.45-.07-30.68-.11H4.84c-1.88 0-3.46-.57-4.1-2.63.55-2 .84-2.31 2.88-2.35 4-.07 8 0 12-.07 8.38-.06 16.76-.14 25.14-.17l43.55-.12h12c2.2-.01 3.4.86 4.29 3.15zM32.38 35l-1.1-2.32c.3-1.84 1.49-2 2.74-2 2.953-.047 5.91-.087 8.87-.12 7.65-.07 15.31-.15 23-.18 10-.04 19.98-.04 29.94 0 2.49 0 3.68.87 4.5 3.1a2.83 2.83 0 01-3 2.11c-2.4.04-4.797.04-7.19 0-13.58 0-27.157-.043-40.73-.13-4.54 0-9.09-.12-13.63-.2-1.12-.02-2.15-.14-3.4-.26zM79.29 8.65v4.81c-7.91.23-15.7.13-23.49.07-7.79-.06-15.46.48-23.09-.4-.54-1-.93-1.78-1.29-2.45.21-1.62 1.25-2.06 2.57-2.09 3.42-.1 6.84-.21 10.26-.24h14.32c6.52 0 13.04.05 19.56.15.389.03.776.08 1.16.15zM48.93 2c.13-1 1.43-1.26 2.72-1.37 1.51-.12 3-.13 4.55-.13h20.59c.72 0 1.43.08 2.23.14a7.26 7.26 0 010 4.85c-1.58.05-3.15.16-4.72.15-7-.06-14-.15-21.08-.23-1.9-.03-3.76-.16-4.29-3.41z"/></g></svg>