<svg width="853" height="167" xmlns="http://www.w3.org/2000/svg"><g fill-rule="nonzero" fill="none"><path d="M55.58 154.84l.57 1.43c-.32 1.34-1.26 2-3 2.1-2.64.1-5.28.13-7.91.13-6.227 0-12.453-.027-18.68-.08-7.26-.047-14.523-.12-21.79-.22a22.37 22.37 0 01-2.76-.37c-.49-.92-.9-1.67-1.26-2.33a2 2 0 012-1.81c3.18-.13 6.37-.35 9.56-.36 12.71-.05 25.41 0 38.12-.05a7 7 0 015.15 1.56zM176.14 162.49l.5 1.77a3.11 3.11 0 01-3.2 1.86c-9.64-.06-19.29-.16-28.93-.17-1.94 0-3.25-.63-3.71-2.73.6-1.77.85-2.05 3-2.1 4-.09 8-.09 12-.1h15.56a6.91 6.91 0 014.78 1.47zM33.33 148.75a2.55 2.55 0 01-2.7 1.89c-3.19 0-6.38-.13-9.57-.18-1.75 0-2.45-1.22-3-2.65.09-1.76 1.5-1.92 2.74-2 2.87-.14 5.74-.17 8.61-.15.69.09 1.363.28 2 .56a2.52 2.52 0 011.92 2.53z" fill="#EADFCA"/><path d="M840.35 24.5a3.82 3.82 0 01-1-3.1v-7.67c-1-.1-1.89-.24-2.73-.25-2-.05-4 0-6-.06-1.26 0-1.92-.62-1.72-2 1.65-.85 3.4-.64 5.14-.65 1.74-.01 3.31-.13 5.29-.21v-5.7c0-1 0-1.92.06-2.88.07-1.13.71-1.69 2-1.77 1.31 3.33.17 6.84 1 10.42.8.07 1.63.21 2.46.22h5.5c1.21 0 1.93.54 2.37 2-3.35 1.54-6.94.09-10.46 1-.77 2.91.09 6-.42 9.11l-1.08 1.64-.41-.1z" fill="#F54073"/></g></svg>