<svg height="722" width="606" xmlns="http://www.w3.org/2000/svg"><g fill="#eadfca"><path d="M489.83 721.17c-.45-.82-.9-1.64-1.28-2.31.53-1.78 1.84-1.66 3-1.67h107.1c1 0 2.08 0 3.11.09a4 4 0 013.56 2.4l-2.25 1.49zM599.53 709.94c-1.07 1.69-2.69 1.63-4.29 1.63h-80.02c-1.74 0-3.48-.12-5.18-.18l-1.2-2c.13-.33.18-.81.38-.88a7 7 0 012.43-.68c18.92-.08 37.843-.133 56.77-.16h26.11c1.53 0 3.07-.05 4.25 1.17.283.343.534.711.75 1.1zM551.82 703.37l-.69-2c.16-.28.23-.61.4-.66a7.52 7.52 0 012.23-.59c10.3-.08 20.6-.133 30.9-.16a5.33 5.33 0 014.74 2.38 6.36 6.36 0 01-4.22 1.59c-10 0-20-.07-29.94-.14a33.9 33.9 0 01-3.42-.42zM.66 25.78c.84-1.73 2.29-2 3.86-2 4.16 0 8.31.05 12.46.05h24.45c8.54 0 17.08.08 25.62.08 13.65 0 27.29-.08 40.94-.09s27.16 0 40.74 0h29.23c8.533 0 17.067.027 25.6.08 1.19 0 2.37.14 3.53.22l1.69 2.4c-.72 2.14-1.16 2.49-3.45 2.5H5.43C2.65 29 1.54 28.25.66 25.78zM176.61 15l-1.26 1.57c-.64 0-1.19.13-1.74.13h-50.6c-12 0-24 0-36 .06-2.86 0-3.86-.66-4.72-3.1.6-1.77 2.13-1.92 3.68-1.93h86.07c3.21-.07 3.21-.07 4.57 3.27zM149.94.6l1.3 2.44c-.37 1.7-1.59 2.08-3.05 2.09h-10.77c-1.76 0-3.52.11-5.26 0a7.13 7.13 0 01-3.09-1 2 2 0 01.48-3.6 5.9 5.9 0 012.1-.34c5.18 0 10.36 0 15.55.07.92.052 1.835.166 2.74.34z"/></g></svg>