<svg height="30" width="210" xmlns="http://www.w3.org/2000/svg"><g fill="#eadfca"><path d="M.66 25.78c.84-1.73 2.29-2 3.86-2 4.16 0 8.31.05 12.46.05h24.45c8.54 0 17.08.08 25.62.08 13.65 0 27.29-.08 40.94-.09s27.16 0 40.74 0h29.23c8.533 0 17.067.027 25.6.08 1.19 0 2.37.14 3.53.22l1.69 2.4c-.72 2.14-1.16 2.49-3.45 2.5H5.43C2.65 29 1.54 28.25.66 25.78zM176.61 15l-1.26 1.57c-.64 0-1.19.13-1.74.13h-50.6c-12 0-24 0-36 .06-2.86 0-3.86-.66-4.72-3.1.6-1.77 2.13-1.92 3.68-1.93h86.07c3.21-.07 3.21-.07 4.57 3.27zM149.94.6l1.3 2.44c-.37 1.7-1.59 2.08-3.05 2.09h-10.77c-1.76 0-3.52.11-5.26 0a7.13 7.13 0 01-3.09-1 2 2 0 01.48-3.6 5.9 5.9 0 012.1-.34c5.18 0 10.36 0 15.55.07.92.052 1.835.166 2.74.34z"/></g></svg>