<svg width="118" height="23" xmlns="http://www.w3.org/2000/svg"><g fill="#517E8C" fill-rule="nonzero"><path d="M1.68 21.91L.4 19.6c.53-1.78 1.83-1.66 3-1.67h107.1c1 0 2.09 0 3.12.09a3.94 3.94 0 013.55 2.4l-2.25 1.49H1.68zM111.38 10.68c-1.07 1.69-2.7 1.63-4.29 1.63H27.07c-1.74 0-3.48-.12-5.18-.18l-1.2-2c.13-.33.18-.81.38-.88a6.92 6.92 0 012.43-.68c18.92-.08 37.843-.133 56.77-.16h26.11c1.53 0 3.07 0 4.24 1.17.286.343.54.711.76 1.1zM63.67 4.11c-.31-.9-.5-1.49-.69-2 .16-.28.23-.61.4-.66a7.52 7.52 0 012.23-.59C75.91.78 86.21.727 96.51.7a5.33 5.33 0 014.74 2.38 6.36 6.36 0 01-4.22 1.59c-10-.05-20-.07-29.94-.14a33.9 33.9 0 01-3.42-.42z"/></g></svg>