<svg width="210" height="30" xmlns="http://www.w3.org/2000/svg"><g fill="#517E8C" fill-rule="nonzero"><path d="M.68 26.57c.84-1.73 2.29-2 3.86-2 4.16 0 8.31.06 12.47.06h24.44c8.54 0 17.08.08 25.62.07 13.65 0 27.3-.07 40.94-.08 13.64-.01 27.16 0 40.74 0h29.23c8.527 0 17.063.027 25.61.08 1.18 0 2.36.14 3.52.22l1.69 2.4c-.72 2.14-1.16 2.49-3.45 2.5H5.46c-2.79-.04-3.9-.82-4.78-3.25zM176.63 15.74l-1.26 1.56c-.64.06-1.19.14-1.74.14h-50.6c-12 0-24 0-36 .06-2.86 0-3.86-.66-4.72-3.1.61-1.77 2.14-1.92 3.68-1.93h86.07c3.21-.02 3.21-.03 4.57 3.27zM150 1.39l1.3 2.44c-.37 1.7-1.59 2.08-3.05 2.09h-10.77c-1.76 0-3.52.12-5.26 0a7 7 0 01-3.09-1 2 2 0 01.48-3.59 5.68 5.68 0 012.1-.34c5.18 0 10.36 0 15.55.07.92.05 1.835.16 2.74.33z"/></g></svg>