<svg width="440" height="814" xmlns="http://www.w3.org/2000/svg"><path d="M323.68 21.91l-1.28-2.31c.53-1.78 1.83-1.66 3-1.67h107.1c1 0 2.09 0 3.12.09a3.94 3.94 0 013.55 2.4l-2.25 1.49H323.68zm109.7-11.23c-1.07 1.69-2.7 1.63-4.29 1.63h-80.02c-1.74 0-3.48-.12-5.18-.18l-1.2-2c.13-.33.18-.81.38-.88a6.92 6.92 0 012.43-.68c18.92-.08 37.843-.133 56.77-.16h26.11c1.53 0 3.07 0 4.24 1.17.286.343.54.711.76 1.1zm-47.71-6.57c-.31-.9-.5-1.49-.69-2 .16-.28.23-.61.4-.66a7.52 7.52 0 012.23-.59c10.3-.08 20.6-.133 30.9-.16a5.33 5.33 0 014.74 2.38 6.36 6.36 0 01-4.22 1.59c-10-.05-20-.07-29.94-.14a33.9 33.9 0 01-3.42-.42zM.68 809.57c.84-1.73 2.29-2 3.86-2 4.16 0 8.31.06 12.47.06h24.44c8.54 0 17.08.08 25.62.07 13.65 0 27.3-.07 40.94-.08 13.64-.01 27.16 0 40.74 0h29.23c8.527 0 17.063.027 25.61.08 1.18 0 2.36.14 3.52.22l1.69 2.4c-.72 2.14-1.16 2.49-3.45 2.5H5.46c-2.79-.04-3.9-.82-4.78-3.25zm175.95-10.83l-1.26 1.56c-.64.06-1.19.14-1.74.14h-50.6c-12 0-24 0-36 .06-2.86 0-3.86-.66-4.72-3.1.61-1.77 2.14-1.92 3.68-1.93h86.07c3.21-.02 3.21-.03 4.57 3.27zM150 784.39l1.3 2.44c-.37 1.7-1.59 2.08-3.05 2.09h-10.77c-1.76 0-3.52.12-5.26 0a7 7 0 01-3.09-1 2 2 0 01.48-3.59 5.68 5.68 0 012.1-.34c5.18 0 10.36 0 15.55.07.92.05 1.835.16 2.74.33z" fill="#88A89A"/></svg>