<svg width="329" height="719" xmlns="http://www.w3.org/2000/svg"><g fill="none" fill-rule="evenodd"><path d="M328.21 704.9a3 3 0 01-3 2.11c-1.44.07-2.88 0-4.32 0-18.77.06-37.54.16-56.32.19-10.23 0-20.45-.07-30.68-.11h-1.44c-1.88 0-3.46-.57-4.1-2.63.55-2 .84-2.31 2.88-2.34 4-.08 8-.06 12-.08 8.38-.06 16.76-.14 25.14-.17 14.52-.053 29.037-.09 43.55-.11h12c2.2.02 3.4.89 4.29 3.14zM260 718l-1.1-2.32c.3-1.84 1.49-2 2.74-2 2.947-.06 5.903-.103 8.87-.13 7.65-.07 15.31-.15 23-.18h29.94c2.49 0 3.68.87 4.5 3.1a2.82 2.82 0 01-3.05 2.11c-2.4.04-4.797.04-7.19 0-13.58 0-27.157-.043-40.73-.13-4.54 0-9.09-.11-13.63-.2-1.08-.06-2.11-.19-3.35-.25zM306.9 691.6v4.8c-7.91.23-15.7.13-23.49.07-7.79-.06-15.46.49-23.09-.4l-1.29-2.45c.21-1.62 1.25-2.06 2.57-2.09 3.42-.1 6.84-.21 10.26-.24h14.32c6.52 0 13 .1 19.56.15.31.01.62.08 1.16.16zM276.54 684.93c.13-1 1.43-1.26 2.72-1.37 1.51-.12 3-.12 4.55-.13h20.59c.72 0 1.43.09 2.23.14a7.32 7.32 0 010 4.85c-1.59.06-3.16.17-4.73.15-7-.05-14-.15-21.08-.23-1.89-.02-3.75-.15-4.28-3.41z" fill="#517E8C" fill-rule="nonzero"/><path d="M33.18 30.72c5.47-2 9.11-4.42 8.69-6.1-.55-2.14-7.52-2.2-15.57-.15-8.05 2.05-14.13 5.46-13.58 7.6.41 1.6 4.43 2 9.81 1.29" stroke="#FEB44D" stroke-width="3"/><path d="M1 71.62a2.55 2.55 0 012.75-1.66c13.92.06 27.83 0 41.75 0h1.43l.11-.27-37-21.36.17-.17-1.34-1.58.76-1.18c1.77-.49 2.92.78 4.19 1.48 4.6 2.53 9.13 5.2 13.67 7.83 2.87 1.67 5.71 3.39 8.58 5.05 4.18 2.41 8.38 4.79 12.86 7.35L22.4 21.3l1 .57-.88-2.13c1.47-1 2.11-.87 3 .73 1.78 3 3.54 6.09 5.31 9.13l9.65 16.66c2.98 5.153 5.957 10.307 8.93 15.46a24.05 24.05 0 002.36 3.65V2.09l.57.2.32-1.81c1.29-.09 2.16.08 2.19 1.46 0 2.55.14 5.09.15 7.63V65.08a1.8 1.8 0 00.2 1c4.22-15.83 8.45-31.66 12.7-47.6l.43.2.87-1.56c1.82.49 2.18 1.07 1.71 2.74-1.19 4.3-2.46 8.59-3.61 12.91-1.84 6.87-3.59 13.76-5.41 20.64-.94 3.55-2 7.08-2.93 10.62 0 .18-.06.37-.11.67l28.54-28.43v.64l2-1.49c1.6 1.77 1.22 1.9-.29 3.47-5.44 5.62-11 11.07-16.58 16.59-3.78 3.767-7.557 7.54-11.33 11.32-.3.3-.56.64-1.1 1.26 1.42-.36 2.51-.62 3.6-.91l23.49-6.27c2.09-.55 4.17-1.14 6.27-1.67 2.31-.58 4.62-1.17 7-1.61a6.63 6.63 0 012.22.44l-.09 1.74.1.32c-1.31.45-2.6 1-3.93 1.34-4.69 1.29-9.39 2.53-14.1 3.78-3.66 1-7.33 1.91-11 2.87-2.43.63-4.86 1.28-7.26 2.15h37.12c-.1.25-.16.42-.23.58l2.33.55-.54 1.77a16.25 16.25 0 01-2.25.34H56.18c-6.37 0-12.73-.05-19.1-.08l-21.16-.1H2.47L.96 71.9l.04-.28z" fill="#C47F6A" fill-rule="nonzero"/><path d="M21.4 26c-5.47 2-9.11 4.42-8.68 6.1.55 2.14 7.51 2.2 15.56.15 8.05-2.05 14.13-5.46 13.59-7.6-.41-1.6-4.43-2-9.82-1.29" stroke="#FEB44D" stroke-width="3"/></g></svg>