<svg width="101" height="37" xmlns="http://www.w3.org/2000/svg"><path d="M100.21 21.9a3 3 0 01-3 2.11c-1.44.07-2.88 0-4.32 0-18.77.06-37.54.16-56.32.19-10.23 0-20.45-.07-30.68-.11H4.45c-1.88 0-3.46-.57-4.1-2.63.55-2 .84-2.31 2.88-2.34 4-.08 8-.06 12-.08 8.38-.06 16.76-.14 25.14-.17 14.52-.053 29.037-.09 43.55-.11h12c2.2.02 3.4.89 4.29 3.14zM32 35l-1.1-2.32c.3-1.84 1.49-2 2.74-2 2.947-.06 5.903-.103 8.87-.13 7.65-.07 15.31-.15 23-.18h29.94c2.49 0 3.68.87 4.5 3.1a2.82 2.82 0 01-3.05 2.11c-2.4.04-4.797.04-7.19 0-13.58 0-27.157-.043-40.73-.13-4.54 0-9.09-.11-13.63-.2-1.08-.06-2.11-.19-3.35-.25zM78.9 8.6v4.8c-7.91.23-15.7.13-23.49.07-7.79-.06-15.46.49-23.09-.4l-1.29-2.45c.21-1.62 1.25-2.06 2.57-2.09 3.42-.1 6.84-.21 10.26-.24h14.32c6.52 0 13 .1 19.56.15.31.01.62.08 1.16.16zM48.54 1.93c.13-1 1.43-1.26 2.72-1.37 1.51-.12 3-.12 4.55-.13H76.4c.72 0 1.43.09 2.23.14a7.32 7.32 0 010 4.85c-1.59.06-3.16.17-4.73.15-7-.05-14-.15-21.08-.23-1.89-.02-3.75-.15-4.28-3.41z" fill="#517E8C"/></svg>