<svg width="413" height="721" xmlns="http://www.w3.org/2000/svg"><g fill-rule="nonzero" fill="none"><path d="M411.21 705.9a3 3 0 01-3 2.11c-1.44.07-2.88 0-4.32 0-18.77.06-37.54.16-56.32.19-10.23 0-20.45-.07-30.68-.11h-1.44c-1.88 0-3.46-.57-4.1-2.63.55-2 .84-2.31 2.88-2.34 4-.08 8-.06 12-.08 8.38-.06 16.76-.14 25.14-.17 14.52-.053 29.037-.09 43.55-.11h12c2.2.02 3.4.89 4.29 3.14zM343 719l-1.1-2.32c.3-1.84 1.49-2 2.74-2 2.947-.06 5.903-.103 8.87-.13 7.65-.07 15.31-.15 23-.18h29.94c2.49 0 3.68.87 4.5 3.1a2.82 2.82 0 01-3.05 2.11c-2.4.04-4.797.04-7.19 0-13.58 0-27.157-.043-40.73-.13-4.54 0-9.09-.11-13.63-.2-1.08-.06-2.11-.19-3.35-.25zM389.9 692.6v4.8c-7.91.23-15.7.13-23.49.07-7.79-.06-15.46.49-23.09-.4l-1.29-2.45c.21-1.62 1.25-2.06 2.57-2.09 3.42-.1 6.84-.21 10.26-.24h14.32c6.52 0 13 .1 19.56.15.31.01.62.08 1.16.16zM359.54 685.93c.13-1 1.43-1.26 2.72-1.37 1.51-.12 3-.12 4.55-.13h20.59c.72 0 1.43.09 2.23.14a7.32 7.32 0 010 4.85c-1.59.06-3.16.17-4.73.15-7-.05-14-.15-21.08-.23-1.89-.02-3.75-.15-4.28-3.41zM11.61 58.3a3.81 3.81 0 01-.95-3.1v-7.66c-1.06-.11-1.89-.24-2.73-.26-2 0-4 0-6-.05-1.25 0-1.92-.63-1.71-2 1.65-.86 3.4-.65 5.14-.66 1.74-.01 3.3-.12 5.28-.2v-5.71c0-1 0-1.92.06-2.87.07-1.14.71-1.69 2-1.77 1.32 3.32.18 6.84 1 10.42.79.07 1.63.2 2.46.21h5.5c1.21 0 1.93.54 2.36 2-3.34 1.54-6.93.1-10.45 1-.78 2.91.09 6-.42 9.11l-1.08 1.63-.46-.09zM281.34 49.77a3.76 3.76 0 01-.95-3.09V39c-1.06-.11-1.9-.24-2.74-.26-2 0-4 0-6-.05-1.25 0-1.92-.62-1.72-2 1.65-.86 3.41-.65 5.15-.66 1.74-.01 3.3-.12 5.28-.2v-5.71c0-1 0-1.92.06-2.87.07-1.14.7-1.69 2-1.77 1.31 3.32.18 6.84 1 10.42.79.07 1.63.2 2.46.22h5.5c1.21 0 1.93.54 2.36 2-3.35 1.54-6.93.1-10.45 1-.78 2.91.08 6-.43 9.11l-1.07 1.63-.45-.09zM74.34 24.78a3.76 3.76 0 01-.95-3.09V14c-1.06-.1-1.9-.24-2.73-.26h-6c-1.25 0-1.92-.62-1.72-2 1.65-.86 3.41-.64 5.15-.65 1.74-.01 3.3-.13 5.28-.21V5.17c0-1 0-1.91.06-2.87.07-1.13.71-1.69 2-1.77 1.32 3.32.18 6.84 1 10.42.79.07 1.63.2 2.46.22h5.5c1.21 0 1.93.54 2.36 2-3.35 1.53-6.93.09-10.45 1-.78 2.91.08 6-.43 9.11l-1.07 1.63-.46-.13z" fill="#88A89A"/><g fill="#BFCDBA"><path d="M182.35 26.06a4.78 4.78 0 001.28.19c1.76-.24 2.37.55 2.55 2.61.14 1.66 0 3.34 0 5v25.75c0 .5-.13 3.28-.1 4 .54-.24-.77 1.08-1.41 1.08h-56.51c-8.14 0-16.27-.12-24.41-.19-1.82 0-2.19-.39-2.19-2.18v-23.1-10.23c0-1.1.07-2.25 1.2-2.93h79.59zm-78 2.62v33.08h79.28V28.68h-79.28z"/><path d="M150.64 58.81h5.72c1 .05 1.2.35 1.43 1.76a9.69 9.69 0 01-1.77.33c-2.23 0-4.47-.05-6.7 0-1.7.07-3.44.67-5.08.43-4.72-.67-9.47-.28-14.19-.53a8.8 8.8 0 01-1.41-.29c-.22-1.1.2-1.55 1.08-1.58 2.19-.09 4.38-.15 6.56-.23.31 0 .63-.07 1.12-.12a7 7 0 00-.59-1.08c-2.77-3.44-3.43-7.36-2.87-11.64a14.24 14.24 0 013.38-7.73 10.48 10.48 0 015.89-3.25h-2.75c-1.71 0-2-.5-1.49-2.43 3.41-.47 6.94 0 10.56-.23l.52 2.51h-5.48c4.94.72 8.17 4.67 9.26 9.25 1.22 5.08.57 9.86-2.82 14.06a4.36 4.36 0 00-.37.77zM136.41 48.1a13.38 13.38 0 002.27 7.63 6.26 6.26 0 0010 .91c3.69-4 4-12.21.4-16.31-3.6-4.1-7.61-3.13-10.29.3a12.51 12.51 0 00-2.38 7.47zM157.66 33.71a7 7 0 011.33-.27h11.48a2.06 2.06 0 011.43.76c.69 1 .37 1.66-.85 1.77-1.22.11-2.62.1-3.93.09-2.587 0-5.17-.027-7.75-.08-1.59.02-1.94-.43-1.71-2.27z"/><path d="M137.31 33l.69 2.63h-10c-.52 0-1-.05-1.55-.1a1.26 1.26 0 01-1.28-1.51c.07-1 .74-1 1.45-1h10.7l-.01-.02zM113.6 52.26l.25-1.4h14.82l.26 1.6a8 8 0 01-1.45.32H115.3a7.67 7.67 0 01-1.7-.52zM155.66 40.42v-1.25a3.19 3.19 0 01.82-.23c1.79-.05 3.57-.09 5.36-.09 2.78 0 5.56.05 8.34.07 1 0 1.36.5 1.27 1.78-5.26.13-10.51.4-15.79-.28zM167.7 52.71c-1.43-1.06-.75-2.42-.87-3.57a33.75 33.75 0 010-4.61 1.46 1.46 0 012.1-1.47c.27.11.63.49.63.74 0 2.68 0 5.36-.06 8 0 .07-.06.14-.17.39l-1.63.52zM159.19 43.53a10 10 0 011.06-.62c.8-.32 1.44-.06 1.46.8.07 2.54 0 5.07 0 7.6a1.07 1.07 0 01-1.19 1.18c-.84 0-1.31-.34-1.32-1.16-.03-2.57-.01-5.13-.01-7.8zM165.41 52c-2.18.8-2.66.48-2.71-1.61v-4.14c0-1.65 1-2.17 2.7-1.36l.01 7.11zM179.61 31.88l1.44-.11c.21.699.357 1.415.44 2.14 0 1.81 0 3.62-.1 5.42a1.44 1.44 0 01-1.09.91c-.45-.06-1.21-.62-1.21-1 0-2.28.13-4.55.24-6.83.01-.11.14-.24.28-.53zM123.68 35.71c-2 0-4.07.14-6.1 0-.4 0-.85-1-1-1.6 0-.18.78-.83 1.24-.87 1.41-.12 2.85-.06 4.28-.05 1.67.01 1.99.43 1.58 2.52zM110.06 33.18c.095.418.162.843.2 1.27v6c0 .31 0 .73-.15.91a1.88 1.88 0 01-1.15.63c-.26 0-.72-.57-.73-.88 0-2.38 0-4.77.15-7.15.04-.96.69-1.1 1.68-.78zM123.85 43.18a5 5 0 01.29 1.14v3.43c0 1-.42 1.49-1.43 1.47-1.01-.02-1.26-.65-1.26-1.5v-2.73c.03-1.81.41-2.12 2.4-1.81zM168.35 56l.3 1.25c-1.34.89-8.57.38-9.27-.73.33-.18.65-.49 1-.5 2.62-.02 5.2-.02 7.97-.02zM178.67 53.92l1.69-.42c.15.493.256.999.32 1.51v3.55c0 1.44-.31 1.65-2 1.42l-.01-6.06zM107.44 59.58a10.2 10.2 0 01-.3-1.66 12.48 12.48 0 01.15-3.06c.1-.4.89-.75 1.42-.89.18 0 .73.65.79 1.05a19 19 0 010 2.72c.04 1.57-.07 1.67-2.06 1.84zM151.1 34.87l.45-1.85a16.45 16.45 0 013.44.08c.44.1.78 1.07.93 1.69 0 .18-.72.74-1.16.8a9.92 9.92 0 01-2.61-.06c-.37-.05-.7-.42-1.05-.66z"/></g></g></svg>