<svg width="63" height="60" xmlns="http://www.w3.org/2000/svg"><g transform="translate(.4 .33)" fill-rule="nonzero" fill="none"><rect fill="#425134" transform="rotate(-135 23.378 38.67)" x="22.078" y="12.34" width="2.6" height="52.66" rx="1.3"/><path d="M53.132 57.15a1.54 1.54 0 01-2.178 0L14.736 20.932l2.178-2.178 36.204 36.204a1.54 1.54 0 01.014 2.192z" fill="#D2796A"/><path d="M11.42 24.25l8.81-8.82a1.22 1.22 0 000-1.73l-8.14-8.14a1.15 1.15 0 00-.72-.35l-10-1.2A1.22 1.22 0 00.01 5.37l1.19 10c.032.271.155.525.35.72l8.14 8.14a1.23 1.23 0 001.73.02z" fill="#41292F"/><ellipse fill="#408566" transform="rotate(-45 48.508 13.539)" cx="48.508" cy="13.539" rx="12.51" ry="6.31"/><ellipse fill="#408566" transform="rotate(-11.42 18.525 37.255)" cx="18.525" cy="37.255" rx="2.55" ry="5.05"/></g></svg>