<svg width="321" height="60" xmlns="http://www.w3.org/2000/svg"><g transform="translate(.4 .33)" fill-rule="nonzero" fill="none"><rect fill="#425134" transform="rotate(-135 23.378 38.67)" x="22.078" y="12.34" width="2.6" height="52.66" rx="1.3"/><path d="M53.132 57.15a1.54 1.54 0 01-2.178 0L14.736 20.932l2.178-2.178 36.204 36.204a1.54 1.54 0 01.014 2.192z" fill="#D2796A"/><path d="M11.42 24.25l8.81-8.82a1.22 1.22 0 000-1.73l-8.14-8.14a1.15 1.15 0 00-.72-.35l-10-1.2A1.22 1.22 0 00.01 5.37l1.19 10c.032.271.155.525.35.72l8.14 8.14a1.23 1.23 0 001.73.02z" fill="#41292F"/><ellipse fill="#408566" transform="rotate(-45 48.508 13.539)" cx="48.508" cy="13.539" rx="12.51" ry="6.31"/><ellipse fill="#408566" transform="rotate(-11.42 18.525 37.255)" cx="18.525" cy="37.255" rx="2.55" ry="5.05"/><path d="M319.2 28.67a2.93 2.93 0 01-3 2.1c-1.44.08-2.88 0-4.32 0-18.768.066-37.54.132-56.32.2-10.23 0-20.45-.07-30.68-.11h-1.44c-1.88 0-3.46-.57-4.1-2.63.55-2 .84-2.31 2.88-2.35 4-.07 8 0 12-.07 8.38-.06 16.76-.14 25.14-.17l43.55-.12h12c2.2-.01 3.4.86 4.29 3.15zM250.98 41.67l-1.1-2.32c.3-1.84 1.49-2 2.74-2 2.952-.048 5.91-.088 8.87-.12 7.65-.07 15.31-.15 23-.18 10-.04 19.98-.04 29.94 0 2.49 0 3.68.87 4.5 3.1a2.83 2.83 0 01-3 2.11c-2.4.04-4.798.04-7.19 0-13.58 0-27.158-.044-40.73-.13-4.54 0-9.09-.12-13.63-.2-1.12-.02-2.15-.14-3.4-.26zM297.89 15.32v4.81c-7.91.23-15.7.13-23.49.07-7.79-.06-15.46.48-23.09-.4-.54-1-.93-1.78-1.29-2.45.21-1.62 1.25-2.06 2.57-2.09 3.42-.1 6.84-.21 10.26-.24h14.32c6.52 0 13.04.05 19.56.15.388.029.775.079 1.16.15zM267.53 8.67c.13-1 1.43-1.26 2.72-1.37 1.51-.12 3-.13 4.55-.13h20.59c.72 0 1.43.08 2.23.14a7.26 7.26 0 010 4.85c-1.58.05-3.15.16-4.72.15-7-.06-14-.15-21.08-.23-1.9-.03-3.76-.16-4.29-3.41z" fill="#EADFCA"/></g></svg>