<svg width="853" height="840" xmlns="http://www.w3.org/2000/svg"><g fill="none"><path d="M.78 146.9c.84-1.74 2.29-2 3.86-2 4.16 0 8.31.05 12.46.05h24.45c8.54 0 17.08.08 25.62.08 13.65 0 27.3-.08 40.94-.09 13.64-.01 27.16 0 40.74 0 9.74 0 19.48-.05 29.23-.05 8.533 0 17.07.027 25.61.08 1.18 0 2.36.14 3.52.22l1.69 2.4c-.72 2.14-1.16 2.5-3.45 2.5H5.55c-2.78.01-3.89-.73-4.77-3.19zm175.95-10.84l-1.26 1.57c-.64.05-1.19.13-1.74.13h-86.6c-2.86 0-3.86-.66-4.72-3.1.6-1.77 2.13-1.92 3.68-1.93h86.07c3.21.04 3.21.04 4.57 3.33zm-26.67-14.35l1.3 2.44c-.37 1.7-1.59 2.09-3.05 2.09h-10.77c-1.76 0-3.52.12-5.26 0a7 7 0 01-3.09-1 2 2 0 01.48-3.6 5.68 5.68 0 012.1-.33c5.18 0 10.36 0 15.55.06.92.052 1.835.166 2.74.34zM55.58 549.84l.57 1.43c-.32 1.34-1.26 2-3 2.1-2.64.1-5.28.13-7.91.13-6.227 0-12.453-.027-18.68-.08-7.26-.047-14.523-.12-21.79-.22a22.37 22.37 0 01-2.76-.37c-.49-.92-.9-1.67-1.26-2.33a2 2 0 012-1.81c3.18-.13 6.37-.35 9.56-.36 12.71-.05 25.41 0 38.12-.05a7 7 0 015.15 1.56zm121.06 9.42a3.11 3.11 0 01-3.2 1.86c-9.64-.06-19.29-.16-28.93-.17-1.94 0-3.25-.63-3.71-2.73.6-1.77.85-2.05 3-2.1 4-.09 8-.09 12-.1h15.56a6.91 6.91 0 014.78 1.47l.5 1.77zM30.63 545.64c-3.19 0-6.38-.13-9.57-.18-1.75 0-2.45-1.22-3-2.65.09-1.76 1.5-1.92 2.74-2 2.87-.14 5.74-.17 8.61-.15.69.09 1.363.28 2 .56a2.52 2.52 0 011.92 2.53 2.55 2.55 0 01-2.7 1.89zM548 836.71c-3.34 2.18-6.89 1.81-10.38 1.81h-60.63c-1.26 0-2.52-.14-3.77-.22l-1.12-1.83c.32-1.7 1.41-1.93 2.73-1.92H534c2.32 0 4.65.2 7 0 2.35-.2 4.29 1 6.4 1.51.23.04.4.41.6.65zM529.08 10.64A12.37 12.37 0 01532 10h30.16c8.62 0 17.24-.06 25.86-.06 10.7 0 21.4 0 32.1.06h108.22c8.3 0 16.6-.12 24.9-.12 11.73 0 23.45.1 35.18.09 10.22 0 20.44-.1 30.65-.16 3 0 3.15.07 4.77 3.08-.51 1.71-1.85 2.13-3.5 2.12H534.18c-.72.045-1.44.045-2.16 0-2.22-.38-3.08-1.49-2.94-4.37zm98.34-7.3l-1 1.91a26.72 26.72 0 01-3 .34c-11.43 0-22.86 0-34.3-.06h-10.55a8.56 8.56 0 01-2.74-.65 2.21 2.21 0 01-1.39-2.3c0-1.15.93-1.63 1.9-1.88a7.47 7.47 0 011.9-.15h44.62c2.2-.09 3.35 1.02 4.56 2.79z" fill="#EADFCA"/><path d="M840.35 419.5a3.82 3.82 0 01-1-3.1v-7.67c-1-.1-1.89-.24-2.73-.25-2-.05-4 0-6-.06-1.26 0-1.92-.62-1.72-2 1.65-.85 3.4-.64 5.14-.65 1.74-.01 3.31-.13 5.29-.21v-5.7c0-1 0-1.92.06-2.88.07-1.13.71-1.69 2-1.77 1.31 3.33.17 6.84 1 10.42.8.07 1.63.21 2.46.22h5.5c1.21 0 1.93.54 2.37 2-3.35 1.54-6.94.09-10.46 1-.77 2.91.09 6-.42 9.11l-1.08 1.64-.41-.1z" fill="#F54073"/></g></svg>