<svg width="826" height="151" xmlns="http://www.w3.org/2000/svg"><g fill="#EADFCA" fill-rule="nonzero"><path d="M529.08 10.64A12.37 12.37 0 01532 10h30.16c8.62 0 17.24-.06 25.86-.06 10.7 0 21.4 0 32.1.06h108.22c8.3 0 16.6-.12 24.9-.12 11.73 0 23.45.1 35.18.09 10.22 0 20.44-.1 30.65-.16 3 0 3.15.07 4.77 3.08-.51 1.71-1.85 2.13-3.5 2.12H534.18c-.72.045-1.44.045-2.16 0-2.22-.38-3.08-1.49-2.94-4.37zM627.42 3.34l-1 1.91a26.72 26.72 0 01-3 .34c-11.43 0-22.86 0-34.3-.06h-10.55a8.56 8.56 0 01-2.74-.65 2.21 2.21 0 01-1.39-2.3c0-1.15.93-1.63 1.9-1.88a7.47 7.47 0 011.9-.15h44.62c2.2-.09 3.35 1.02 4.56 2.79zM176.73 136.06l-1.26 1.57c-.64.05-1.19.13-1.74.13h-86.6c-2.86 0-3.86-.66-4.72-3.1.6-1.77 2.13-1.92 3.68-1.93h86.07c3.21.04 3.21.04 4.57 3.33zM150.06 121.71l1.3 2.44c-.37 1.7-1.59 2.09-3.05 2.09h-10.77c-1.76 0-3.52.12-5.26 0a7 7 0 01-3.09-1 2 2 0 01.48-3.6 5.68 5.68 0 012.1-.33c5.18 0 10.36 0 15.55.06.92.052 1.835.166 2.74.34zM.78 146.9c.84-1.74 2.29-2 3.86-2 4.16 0 8.31.05 12.46.05h24.45c8.54 0 17.08.08 25.62.08 13.65 0 27.3-.08 40.94-.09 13.64-.01 27.16 0 40.74 0 9.74 0 19.48-.05 29.23-.05 8.533 0 17.07.027 25.61.08 1.18 0 2.36.14 3.52.22l1.69 2.4c-.72 2.14-1.16 2.5-3.45 2.5H5.55c-2.78.01-3.89-.73-4.77-3.19z"/></g></svg>