<svg width="790" height="774" xmlns="http://www.w3.org/2000/svg"><g fill-rule="nonzero" fill="none"><path d="M719.52 455.85a2.94 2.94 0 01-3 2.1c-1.43.08-2.87 0-4.31 0l-56.32.2c-10.23 0-20.46-.07-30.68-.11h-1.44c-1.88 0-3.46-.57-4.1-2.63.55-2 .84-2.31 2.88-2.35 4-.07 8 0 12-.07 8.38-.06 16.76-.14 25.14-.17 14.513-.047 29.03-.087 43.55-.12h12c2.19.03 3.38.9 4.28 3.15zM651.3 468.91l-1.11-2.32c.31-1.84 1.49-2 2.75-2 3 0 5.91-.09 8.86-.12 7.66-.07 15.31-.15 23-.18 10-.04 19.98-.04 29.94 0 2.48 0 3.68.87 4.5 3.1a2.83 2.83 0 01-3 2.11c-2.4.04-4.8.04-7.2 0-13.573 0-27.147-.043-40.72-.13-4.54 0-9.09-.12-13.63-.2-1.11-.03-2.14-.17-3.39-.26zM698.2 442.55v4.8c-7.9.23-15.7.13-23.49.07-7.79-.06-15.46.48-23.09-.4-.53-1-.93-1.77-1.28-2.45.21-1.62 1.25-2.06 2.56-2.09 3.43-.1 6.85-.21 10.27-.24h14.32c6.52 0 13.04.05 19.56.15.31.01.61.08 1.15.16zM667.84 435.88c.13-1 1.44-1.26 2.73-1.37 1.51-.12 3-.13 4.55-.13h20.59c.71 0 1.43.08 2.23.14a7.39 7.39 0 010 4.85c-1.58 0-3.15.17-4.72.15-7 0-14-.15-21.08-.23-1.9-.02-3.76-.15-4.3-3.41zM262.8 772.89c-.46-.82-.91-1.63-1.28-2.31.53-1.77 1.83-1.66 3-1.66h107.09c1 0 2.08 0 3.11.09a3.94 3.94 0 013.56 2.4l-2.25 1.49-113.23-.01zM372.5 761.66c-1.07 1.69-2.7 1.63-4.29 1.63h-80.03c-1.74 0-3.48-.11-5.17-.17L281.8 761c.14-.33.19-.8.39-.88a7.38 7.38 0 012.42-.68c18.933-.08 37.86-.13 56.78-.15h26.11c1.53 0 3.07 0 4.24 1.17.291.375.546.776.76 1.2zM324.78 755.1l-.69-2.06c.16-.28.24-.6.41-.66a7.42 7.42 0 012.23-.58c10.3-.087 20.6-.14 30.9-.16a5.33 5.33 0 014.74 2.37 6.38 6.38 0 01-4.22 1.59c-10-.05-20-.07-29.94-.14a34.25 34.25 0 01-3.43-.36zM477.19 34.05c.4-2 1.88-2.27 3.62-2.27h34.54c28.713 0 57.417.017 86.11.05H785.66c2.48.06 3.34.92 3.72 3.45-.71 1.45-2.06 1.56-3.45 1.57H492.16c-3.52 0-7-.07-10.55 0-2.12.15-3.8-.25-4.42-2.8zM769.69 23.63c-.77 1.51-2.17 1.65-3.65 1.65H534.79c-2.14 0-3.69-.77-4.39-2.88.5-1.79 1.85-2.12 3.37-2.14 4.233 0 8.467-.023 12.7-.07h36.61c5.51 0 11-.08 16.54-.08h165.87c3.23.14 3.23.23 4.2 3.52zM575.06 15.72l-1.22-2.47c.78-2 1.32-2.39 3.6-2.4h66.39l41.2.06c5 0 9.91 0 14.86-.08a6.51 6.51 0 014.95 1.7c.13.45.3 1.06.47 1.64a4.27 4.27 0 01-.5.89c-1.12 1.17-2.6 1.06-4 1.06H578.36a27.56 27.56 0 01-3.3-.4zM699.13 43.93c-.94 1.46-2.29 1.57-3.67 1.57h-70.49c-1.57 0-3.14-.22-4.57-.33l-1.28-2.64c.4-1.67 1.64-2 3.1-2h72.15a10.15 10.15 0 011.91.1c1.82.29 2.54 1.17 2.85 3.3zM610.93 5.55c-1.7-3.59-1-4.75 2.66-4.77 8.31-.05 16.62 0 24.93 0h22c2.25 0 4 .81 4.89 3-.7 1.94-2.23 2.24-3.89 2.25h-46.75a32.58 32.58 0 01-3.84-.48zM694.08 53.91a3.56 3.56 0 01-3.45 1.65c-5.83 0-11.67-.06-17.5 0-2.15 0-3.73-.61-4.5-2.9a2.37 2.37 0 012.61-2.1c6.4 0 12.79-.07 19.19 0 2.18.04 3.21 1.12 3.65 3.35z" fill="#EADFCA"/><path d="M598.37 316.16a3.79 3.79 0 01-.95-3.09v-7.67c-1.06-.11-1.89-.24-2.73-.26-2 0-4 0-6-.05-1.26 0-1.92-.62-1.72-2 1.65-.86 3.4-.65 5.14-.65 1.74 0 3.31-.13 5.29-.21v-5.71c0-1 0-1.92.06-2.87.07-1.13.71-1.69 2-1.77 1.31 3.32.17 6.84 1 10.42.8.07 1.63.2 2.46.22h5.5c1.21 0 1.93.54 2.37 2-3.35 1.53-6.94.09-10.46 1-.77 2.91.09 6-.42 9.11-.29.44-.68 1-1.08 1.63l-.46-.1zM68.59 355.62a3.79 3.79 0 01-.95-3.1v-7.67c-1.06-.1-1.9-.24-2.74-.25-2-.05-4 0-6-.06-1.26 0-1.92-.62-1.72-2 1.65-.85 3.41-.64 5.14-.65 1.73-.01 3.31-.13 5.29-.21v-5.7c0-1 0-1.92.06-2.88.07-1.13.71-1.69 2-1.77 1.31 3.33.17 6.84 1 10.42.79.08 1.62.21 2.46.22h5.5c1.2 0 1.93.54 2.36 2-3.35 1.54-6.94.09-10.46 1-.77 2.91.09 6-.42 9.11l-1.07 1.64-.45-.1zM12.74 254.85a3.82 3.82 0 01-1-3.1v-7.67c-1-.1-1.89-.24-2.73-.25-2-.05-4 0-6-.06-1.26 0-1.92-.62-1.72-2 1.65-.85 3.4-.64 5.14-.65 1.74-.01 3.31-.13 5.29-.21v-5.7c0-1 0-1.92.06-2.88.07-1.13.71-1.69 2.05-1.77 1.31 3.33.17 6.84 1 10.42.8.07 1.63.21 2.46.22h5.5c1.21 0 1.93.54 2.37 2-3.35 1.54-6.94.09-10.46 1-.77 2.91.09 6-.42 9.11l-1.08 1.64-.46-.1zM693.58 353a3.8 3.8 0 01-1-3.1v-7.7c-1-.1-1.89-.23-2.73-.25-2-.05-4 0-6-.06-1.26 0-1.92-.62-1.72-2 1.65-.85 3.41-.64 5.14-.65 1.73-.01 3.31-.12 5.29-.21v-5.7c0-1 0-1.92.06-2.88.07-1.13.71-1.69 2-1.76 1.31 3.32.17 6.83 1 10.41.79.08 1.62.21 2.46.22h5.5c1.2 0 1.93.53 2.36 2-3.35 1.54-6.94.1-10.46 1-.77 2.91.09 6-.42 9.11l-1.07 1.64-.41-.07zM776.94 247a3.82 3.82 0 01-1-3.1v-7.67c-1.06-.1-1.89-.23-2.73-.25-2-.05-4 0-6-.06-1.26 0-1.92-.62-1.72-2 1.65-.85 3.4-.64 5.14-.65 1.74-.01 3.31-.12 5.29-.21v-5.7c0-1 0-1.92.06-2.88.07-1.13.71-1.69 2-1.76 1.31 3.32.17 6.83 1 10.41.8.08 1.63.21 2.46.22h5.5c1.21 0 1.93.54 2.37 2-3.35 1.54-6.94.1-10.46 1-.77 2.91.09 6-.42 9.11l-1.08 1.64-.41-.1z" fill="#F54073"/></g></svg>