<svg width="606" height="722" xmlns="http://www.w3.org/2000/svg"><g fill-rule="nonzero" fill="none"><path d="M305.2 99.44a18.94 18.94 0 01-3.89-1.61c-2.46-1.73-2.35-6.39.23-8a22.59 22.59 0 014.84-1.87c1.47-.49 3-.77 4.49-1.25 2.72-.89 5-.44 6.82 1.9.188.203.392.39.61.56l9.09-2.46a5.21 5.21 0 013-5 14.85 14.85 0 012.84-.87c2.19-.6 4.38-1.23 6.58-1.77a5.29 5.29 0 015.64 2c.18.21.37.4.66.72l8.64-2.31a15.46 15.46 0 011.52-3.58 6 6 0 012.75-1.94c2.72-.89 5.51-1.59 8.3-2.27a5.25 5.25 0 015.59 1.81 9 9 0 01.64 1l10.48-2.81c.14-.57.27-1.06.39-1.56a4.88 4.88 0 013.46-3.77c3-.91 6.06-1.71 9.11-2.46a4.45 4.45 0 015 1.8c.43.58.88 1 1.7.77 2.39-.67 4.78-1.28 7.17-1.93a4.31 4.31 0 00.71-.36 5.47 5.47 0 013.05-4.89 19.1 19.1 0 013.3-1c1.85-.51 3.73-.91 5.54-1.52a5.37 5.37 0 017 3.59c1.05 3.55-1.31 6.19-4.23 7-1.73.47-3.48.88-5.19 1.41-3.25 1-6.31 1.25-8.7-1.84l-8.93 2.37a13.2 13.2 0 01-.43 2 4.9 4.9 0 01-3.19 3c-2.79.85-5.6 1.58-8.41 2.33a5.66 5.66 0 01-5.7-1.62c-.22-.22-.46-.43-.81-.75l-10 2.65a32.93 32.93 0 01-2.46 3.93 5.4 5.4 0 01-2.4 1.47c-2.43.77-4.91 1.41-7.38 2a6 6 0 01-5.46-.92c-.48-.36-1-.7-1.46-1l.19-.38-9.27 2.45a15.9 15.9 0 01-.5 1.84 6.11 6.11 0 01-4.32 3.62c-2.24.58-4.47 1.2-6.71 1.78a6.18 6.18 0 01-6.49-1.61 1.57 1.57 0 00-1.26-.45c-2.86.71-5.7 1.5-8.55 2.27-.13.49-.23.87-.34 1.24a5.7 5.7 0 01-4.27 4.08c-2.93.77-5.85 1.57-8.77 2.35l-.22-.14zm9.76-9.76a2.05 2.05 0 00-2.37-.7c-2.89.71-5.78 1.46-8.62 2.35a2.79 2.79 0 00-1.61 3.44 3.11 3.11 0 003.24 1.92c2.86-.7 5.69-1.48 8.53-2.25a1.9 1.9 0 001.48-1.93l-1.39-1.07.74-1.76zm100.56-23.5a2.93 2.93 0 002.69.53c2.53-.68 5.06-1.38 7.59-2.08a3.06 3.06 0 002.23-3.31 2.74 2.74 0 00-3.26-2.27c-2.94.67-5.85 1.51-8.73 2.41a1.91 1.91 0 00-1.52 1.81l1.87 1.46-.87 1.45zm-56.44 15l.06.43a8.43 8.43 0 002.38.15c2.6-.58 5.19-1.26 7.75-2 2.14-.62 2.48-1.73 1.12-3.51l.3-1.3a2.41 2.41 0 00-2.75-.76c-2.667.62-5.333 1.327-8 2.12a2.54 2.54 0 00-2 2.21l1.82.34c.98 1.14.1 1.72-.68 2.34v-.02zM388 73.81c.928.183 1.877.24 2.82.17 2.71-.64 5.38-1.45 8.07-2.17a1.61 1.61 0 001.35-1.4l-3-1.12c.35-.511.745-.99 1.18-1.43a6.48 6.48 0 011.34-.59v-.45a6.15 6.15 0 00-2.29-.46c-3 .68-6 1.49-8.91 2.34a1.75 1.75 0 00-1.31 2.17l1.52 1.16-.77 1.78zM341.68 84l1.14-1.71a2.66 2.66 0 00-2.87-.62c-2.52.59-5 1.28-7.5 2a3 3 0 00-2.23 2.08c2.29.6 2.29.6 2.78 1.58l-1.62 1.39a3.13 3.13 0 002.82.46c2.23-.58 4.48-1.1 6.7-1.71 1.12-.31 2.39-.53 2.6-2L341.68 84z" fill="#BA963B"/><path d="M489.83 721.17c-.45-.82-.9-1.64-1.28-2.31.53-1.78 1.84-1.66 3-1.67h107.1c1 0 2.08 0 3.11.09a4 4 0 013.56 2.4l-2.25 1.49H489.83zM599.53 709.94c-1.07 1.69-2.69 1.63-4.29 1.63h-80.02c-1.74 0-3.48-.12-5.18-.18l-1.2-2c.13-.33.18-.81.38-.88a7 7 0 012.43-.68c18.92-.08 37.843-.133 56.77-.16h26.11c1.53 0 3.07-.05 4.25 1.17.283.343.534.711.75 1.1zM551.82 703.37l-.69-2c.16-.28.23-.61.4-.66a7.52 7.52 0 012.23-.59c10.3-.08 20.6-.133 30.9-.16a5.33 5.33 0 014.74 2.38 6.36 6.36 0 01-4.22 1.59c-10 0-20-.07-29.94-.14a33.9 33.9 0 01-3.42-.42zM.66 25.78c.84-1.73 2.29-2 3.86-2 4.16 0 8.31.05 12.46.05h24.45c8.54 0 17.08.08 25.62.08 13.65 0 27.29-.08 40.94-.09 13.65-.01 27.16 0 40.74 0h29.23c8.533 0 17.067.027 25.6.08 1.19 0 2.37.14 3.53.22l1.69 2.4c-.72 2.14-1.16 2.49-3.45 2.5H5.43C2.65 29 1.54 28.25.66 25.78zM176.61 15l-1.26 1.57c-.64 0-1.19.13-1.74.13h-50.6c-12 0-24 0-36 .06-2.86 0-3.86-.66-4.72-3.1.6-1.77 2.13-1.92 3.68-1.93h86.07c3.21-.07 3.21-.07 4.57 3.27zM149.94.6l1.3 2.44c-.37 1.7-1.59 2.08-3.05 2.09h-10.77c-1.76 0-3.52.11-5.26 0a7.13 7.13 0 01-3.09-1 2 2 0 01.48-3.6 5.9 5.9 0 012.1-.34c5.18 0 10.36 0 15.55.07.92.052 1.835.166 2.74.34z" fill="#EADFCA"/></g></svg>