<svg height="44" width="132" xmlns="http://www.w3.org/2000/svg"><path d="M6.2 43.44a18.94 18.94 0 01-3.89-1.61c-2.46-1.73-2.35-6.39.23-8a22.59 22.59 0 014.84-1.87c1.47-.49 3-.77 4.49-1.25 2.72-.89 5-.44 6.82 1.9.188.203.392.39.61.56l9.09-2.46a5.21 5.21 0 013-5 14.85 14.85 0 012.84-.87c2.19-.6 4.38-1.23 6.58-1.77a5.29 5.29 0 015.64 2c.18.21.37.4.66.72l8.64-2.31a15.46 15.46 0 011.52-3.58 6 6 0 012.75-1.94c2.72-.89 5.51-1.59 8.3-2.27a5.25 5.25 0 015.59 1.81 9 9 0 01.64 1l10.48-2.81c.14-.57.27-1.06.39-1.56a4.88 4.88 0 013.46-3.77c3-.91 6.06-1.71 9.11-2.46a4.45 4.45 0 015 1.8c.43.58.88 1 1.7.77 2.39-.67 4.78-1.28 7.17-1.93a4.31 4.31 0 00.71-.36 5.47 5.47 0 013.05-4.89 19.1 19.1 0 013.3-1c1.85-.51 3.73-.91 5.54-1.52a5.37 5.37 0 017 3.59c1.05 3.55-1.31 6.19-4.23 7-1.73.47-3.48.88-5.19 1.41-3.25 1-6.31 1.25-8.7-1.84l-8.93 2.37a13.2 13.2 0 01-.43 2 4.9 4.9 0 01-3.19 3c-2.79.85-5.6 1.58-8.41 2.33a5.66 5.66 0 01-5.7-1.62c-.22-.22-.46-.43-.81-.75l-10 2.65a32.93 32.93 0 01-2.46 3.93 5.4 5.4 0 01-2.4 1.47c-2.43.77-4.91 1.41-7.38 2a6 6 0 01-5.46-.92c-.48-.36-1-.7-1.46-1l.19-.38-9.27 2.45a15.9 15.9 0 01-.5 1.84 6.11 6.11 0 01-4.32 3.62c-2.24.58-4.47 1.2-6.71 1.78a6.18 6.18 0 01-6.49-1.61 1.57 1.57 0 00-1.26-.45c-2.86.71-5.7 1.5-8.55 2.27-.13.49-.23.87-.34 1.24a5.7 5.7 0 01-4.27 4.08c-2.93.77-5.85 1.57-8.77 2.35zm9.76-9.76a2.05 2.05 0 00-2.37-.7c-2.89.71-5.78 1.46-8.62 2.35a2.79 2.79 0 00-1.61 3.44 3.11 3.11 0 003.24 1.92c2.86-.7 5.69-1.48 8.53-2.25a1.9 1.9 0 001.48-1.93l-1.39-1.07zm100.56-23.5a2.93 2.93 0 002.69.53c2.53-.68 5.06-1.38 7.59-2.08a3.06 3.06 0 002.23-3.31 2.74 2.74 0 00-3.26-2.27c-2.94.67-5.85 1.51-8.73 2.41a1.91 1.91 0 00-1.52 1.81l1.87 1.46zm-56.44 15l.06.43a8.43 8.43 0 002.38.15c2.6-.58 5.19-1.26 7.75-2 2.14-.62 2.48-1.73 1.12-3.51l.3-1.3a2.41 2.41 0 00-2.75-.76c-2.667.62-5.333 1.327-8 2.12a2.54 2.54 0 00-2 2.21l1.82.34c.98 1.14.1 1.72-.68 2.34zM89 17.81c.928.183 1.877.24 2.82.17 2.71-.64 5.38-1.45 8.07-2.17a1.61 1.61 0 001.35-1.4l-3-1.12c.35-.511.745-.99 1.18-1.43a6.48 6.48 0 011.34-.59v-.45a6.15 6.15 0 00-2.29-.46c-3 .68-6 1.49-8.91 2.34a1.75 1.75 0 00-1.31 2.17l1.52 1.16zM42.68 28l1.14-1.71a2.66 2.66 0 00-2.87-.62c-2.52.59-5 1.28-7.5 2a3 3 0 00-2.23 2.08c2.29.6 2.29.6 2.78 1.58l-1.62 1.39a3.13 3.13 0 002.82.46c2.23-.58 4.48-1.1 6.7-1.71 1.12-.31 2.39-.53 2.6-2z" fill="#ba963b"/></svg>