<svg height="24" width="119" xmlns="http://www.w3.org/2000/svg"><g fill="#eadfca"><path d="M2.83 22.17c-.45-.82-.9-1.64-1.28-2.31.53-1.78 1.84-1.66 3-1.67h107.1c1 0 2.08 0 3.11.09a4 4 0 013.56 2.4l-2.25 1.49zM112.53 10.94c-1.07 1.69-2.69 1.63-4.29 1.63H28.22c-1.74 0-3.48-.12-5.18-.18l-1.2-2c.13-.33.18-.81.38-.88a7 7 0 012.43-.68c18.92-.08 37.843-.133 56.77-.16h26.11c1.53 0 3.07-.05 4.25 1.17.283.343.534.711.75 1.1zM64.82 4.37l-.69-2c.16-.28.23-.61.4-.66a7.52 7.52 0 012.23-.59c10.3-.08 20.6-.133 30.9-.16a5.33 5.33 0 014.74 2.38 6.36 6.36 0 01-4.22 1.59c-10 0-20-.07-29.94-.14a33.9 33.9 0 01-3.42-.42z"/></g></svg>