<svg width="440" height="814" xmlns="http://www.w3.org/2000/svg"><g fill="none" fill-rule="evenodd"><path d="M323.678 21.908l-1.279-2.31c.533-1.776 1.834-1.658 3.01-1.666 4.154-.028 8.306-.01 12.46-.01 16.211-.002 32.424-.003 48.636-.002 15.333.001 30.666.003 46 .01 1.036 0 2.08-.015 3.111.088 1.492.152 2.788.7 3.56 2.402-.732.482-1.493.985-2.253 1.488H323.678zM433.38 10.677c-1.072 1.695-2.696 1.629-4.29 1.629-7.826.002-15.652-.001-23.48-.001-18.847-.002-37.696.001-56.544-.014-1.74-.001-3.48-.117-5.175-.178l-1.205-2.052c.135-.335.183-.807.383-.884.783-.303 1.614-.674 2.428-.678 18.924-.079 37.85-.118 56.773-.156 8.703-.017 17.406-.012 26.11-.023 1.528-.002 3.071-.054 4.242 1.17.312.326.498.772.757 1.187M385.666 4.113l-.69-2.054c.16-.277.235-.604.401-.66.73-.246 1.484-.58 2.232-.586 10.3-.084 20.601-.127 30.901-.16 1.918-.005 3.547.64 4.74 2.376-1.29 1.048-2.625 1.6-4.219 1.592-9.98-.054-19.962-.073-29.943-.14-1.1-.006-2.197-.23-3.422-.368M.678 809.573c.838-1.736 2.29-2.012 3.864-2.009 4.155.012 8.31.052 12.463.053 8.15.003 16.298-.026 24.446-.017 8.54.01 17.08.08 25.62.074 13.647-.009 27.295-.078 40.942-.087 13.578-.01 27.156.034 40.733.035 9.744.002 19.487-.044 29.23-.041 8.537.002 17.073.034 25.61.077 1.182.005 2.363.142 3.522.217.628.894 1.164 1.658 1.69 2.404-.713 2.14-1.162 2.492-3.444 2.499-7.75.017-15.5.014-23.25.014-18.218-.002-36.435-.009-54.65-.009-19.1 0-38.2.005-57.3.006H30.622c-8.389 0-16.778.013-25.167-.002-2.789-.005-3.89-.753-4.777-3.214M176.626 798.74c-.384.48-.82 1.021-1.257 1.563-.636.053-1.186.138-1.737.138-16.866-.01-33.732-.037-50.598-.038-11.989 0-23.978.04-35.969.054-2.858.003-3.855-.66-4.717-3.1.607-1.77 2.136-1.918 3.683-1.93 3.917-.033 7.833-.023 11.75-.02 24.773.012 49.545.027 74.318.04 3.172.002 3.172-.004 4.527 3.293M149.957 784.388l1.306 2.438c-.372 1.701-1.596 2.086-3.054 2.094-3.59.021-7.18.027-10.77.034-1.754.004-3.52.119-5.26-.048-1.063-.102-2.21-.45-3.092-1.032-1.476-.974-1.175-2.936.48-3.599.643-.258 1.396-.331 2.1-.331 5.184-.007 10.367.007 15.551.065.926.01 1.848.25 2.74.379" fill="#517E8C"/><path d="M232.955 125.094c0-13.992-11.344-25.336-25.336-25.336-13.993 0-25.336 11.344-25.336 25.336 0 13.993 11.343 25.336 25.336 25.336 13.992 0 25.336-11.343 25.336-25.336" fill="#B9B563"/><path d="M207.619 123.344l18.129 1.25a.502.502 0 010 1l-18.13 1.25a1.754 1.754 0 110-3.5" fill="#6C2E2C"/><path d="M205.869 125.094l1.25-22.782a.502.502 0 011 0l1.25 22.782a1.754 1.754 0 11-3.5 0" fill="#6C2E2C"/><path d="M261.072 137.25c-.927-.846-.953-1.968-.953-3.098v-7.67c-1.057-.102-1.894-.235-2.734-.253-1.997-.044-3.995-.014-5.992-.054-1.255-.026-1.92-.623-1.717-2.03 1.649-.855 3.404-.645 5.14-.654 1.654-.008 3.308-.124 5.288-.207 0-2.07-.006-3.888.003-5.705.005-.959.004-1.919.062-2.875.068-1.133.707-1.689 2.045-1.766 1.312 3.321.173 6.836.967 10.416.792.074 1.625.206 2.46.218 1.833.03 3.667.014 5.5-.015 1.207-.019 1.93.54 2.363 1.964-3.35 1.54-6.937.095-10.457.983-.773 2.91.088 5.96-.422 9.111l-1.073 1.635h-.48zM172.686 102.312c-.928-.845-.953-1.967-.953-3.098v-7.67c-1.057-.101-1.895-.234-2.734-.253-1.997-.044-3.996-.013-5.993-.054-1.254-.026-1.92-.622-1.717-2.031 1.65-.854 3.404-.643 5.142-.652 1.653-.01 3.306-.125 5.287-.208 0-2.07-.006-3.888.002-5.705.005-.958.004-1.92.062-2.875.069-1.132.708-1.69 2.045-1.766 1.312 3.322.173 6.836.967 10.416.793.075 1.626.206 2.46.218a173.8 173.8 0 005.5-.014c1.208-.02 1.93.539 2.363 1.963-3.348 1.539-6.937.096-10.457.984-.773 2.91.089 5.96-.421 9.11l-1.074 1.635h-.48zM80.177 116.86c-.927-.845-.953-1.968-.953-3.098v-7.67c-1.057-.101-1.894-.234-2.734-.253-1.997-.044-3.995-.013-5.993-.054-1.254-.026-1.92-.622-1.717-2.031 1.65-.854 3.405-.643 5.142-.652 1.653-.01 3.306-.125 5.287-.208 0-2.07-.006-3.888.003-5.705.004-.958.004-1.92.062-2.875.068-1.132.707-1.69 2.045-1.766 1.312 3.322.172 6.836.967 10.416.792.075 1.625.206 2.46.218 1.833.029 3.667.014 5.5-.014 1.207-.02 1.93.539 2.363 1.963-3.349 1.539-6.937.096-10.457.983-.773 2.91.088 5.96-.422 9.11l-1.074 1.636h-.479z" fill="#517E8C"/></g></svg>