<svg width="206" height="74" xmlns="http://www.w3.org/2000/svg"><g transform="translate(.695 .08)" fill-rule="nonzero" fill="none"><circle fill="#B9B563" cx="138.925" cy="47.01" r="25.34"/><path d="M138.925 45.26l18.13 1.25a.5.5 0 01.46.54.49.49 0 01-.46.46l-18.13 1.25a1.754 1.754 0 01-.24-3.5h.24z" fill="#6C2E2C"/><path d="M137.175 47.01l1.25-22.78a.5.5 0 011 0l1.25 22.78a1.753 1.753 0 01-3.5.2v-.2z" fill="#6C2E2C"/><path d="M192.375 59.17a3.79 3.79 0 01-1-3.1V48.4c-1.06-.1-1.89-.23-2.73-.25-2 0-4 0-6-.06-1.25 0-1.92-.62-1.72-2 1.66-.85 3.41-.64 5.15-.65 1.74-.01 3.3-.12 5.28-.21v-5.7c0-1 0-1.92.06-2.88.07-1.13.71-1.69 2-1.76 1.32 3.32.18 6.83 1 10.41.79.08 1.63.21 2.46.22h5.5c1.21 0 1.93.54 2.36 2-3.35 1.54-6.93.1-10.45 1-.78 2.91.08 6-.43 9.12l-1.07 1.63-.41-.1zM103.995 24.23a3.79 3.79 0 01-1-3.1v-7.67c-1.05-.1-1.89-.23-2.73-.25h-6c-1.26 0-1.92-.63-1.72-2 1.65-.86 3.4-.65 5.14-.66 1.74-.01 3.31-.12 5.29-.2V4.64c0-1 0-1.92.06-2.87.07-1.14.71-1.69 2.05-1.77 1.31 3.32.17 6.84 1 10.42.8.07 1.63.2 2.47.21h5.49c1.21 0 1.93.54 2.37 2-3.35 1.54-6.94.1-10.46 1-.77 2.91.09 6-.42 9.11l-1.07 1.63-.47-.14zM11.485 38.78a3.8 3.8 0 01-1-3.1v-7.67c-1.05-.1-1.89-.23-2.73-.25-2-.05-4 0-6-.06-1.26 0-1.92-.62-1.72-2 1.65-.85 3.4-.64 5.14-.65 1.74-.01 3.31-.12 5.29-.21v-5.7c0-1 0-1.92.06-2.88.07-1.13.71-1.69 2.05-1.76 1.31 3.32.17 6.83 1 10.41.79.08 1.62.21 2.46.22h5.5c1.2 0 1.93.54 2.36 2-3.35 1.54-6.94.1-10.46 1-.77 2.91.09 6-.42 9.11l-1.07 1.64-.46-.1z" fill="#517E8C"/></g></svg>